<?xml version="1.0" encoding="utf-8"?>
<?xml-stylesheet type="text/xsl" href="rss1.xsl"?>
<rss version="2.0" xmlns:atom="http://www.w3.org/2005/Atom" xmlns:content="http://purl.org/rss/1.0/modules/content/" xmlns:dc="http://purl.org/dc/elements/1.1/" xmlns:media="http://search.yahoo.com/mrss/">
<channel>
 <title>Getty</title>
 <link>http://www.gettyimg.com/</link>
 <atom:link href="http://www.gettyimg.com/" rel="self" type="application/rss+xml" />

 
                <item>
                <title><![CDATA[【Requests】[REQ AUD] - Vesna]]></title>
                <link><![CDATA[https://sharemania.us/threads/vesna.220983/]]></link>
                <description><![CDATA[<article>
<blockquote class="messageText SelectQuoteContainer ugc baseHtml">
Could someone possibly help me with a download for this release in mp3 320?<br>
<br>
<a href="https://music.apple.com/cz/album/muzika-ep/1687133832" target="_blank" class="externalLink" rel="nofollow">https://music.apple.com/cz/album/muzika-ep/1687133832</a>
<div class="messageTextEndMarker">&nbsp;</div>
</blockquote>
</article>]]></description>
                <author><![CDATA[Auroraofmusicmoon]]></author>
                </item>

                
                <item>
                <title><![CDATA[【Requests】[REQ VID] - The Black History Collection - Martin Luther King - "I Have a Dream"]]></title>
                <link><![CDATA[https://sharemania.us/threads/the-black-history-collection-martin-luther-king-i-have-a-dream.220982/]]></link>
                <description><![CDATA[<article>
<blockquote class="messageText SelectQuoteContainer ugc baseHtml">
Metadata from dead torrents suggest that a full copy of <a href="https://www.amazon.com/Martin-Luther-King-Jr-Dream/dp/B00069FLAY" target="_blank" class="externalLink" rel="nofollow">the DVD</a> as an ISO is ~2.5 GB. It is otherwise not available anywhere online.
<div class="messageTextEndMarker">&nbsp;</div>
</blockquote>
</article>]]></description>
                <author><![CDATA[sagsdfgvsegrserg]]></author>
                </item>

                
                <item>
                <title><![CDATA[【UPSCALED】Black Eyed Peas, J Balvin - Ritmo (Bad Boys For Life) [4K AI Upscale HEVC 10-bit / PCM 24-bit]]]></title>
                <link><![CDATA[https://sharemania.us/threads/black-eyed-peas-j-balvin-ritmo-bad-boys-for-life-4k-ai-upscale-hevc-10-bit-pcm-24-bit.220981/]]></link>
                <description><![CDATA[<article>
<blockquote class="messageText SelectQuoteContainer ugc baseHtml">
<b><img src="https://images2.imgbox.com/de/13/EifoNvT4_o.jpg" class="bbCodeImage LbImage" alt="[​IMG]" data-url="https://images2.imgbox.com/de/13/EifoNvT4_o.jpg" style=""> <br>
<br>
Genre: <span style="color: #0059b3">Hip Hop, Latin</span> <br>
Style: <span style="color: #0059b3">Pop Rap</span> <br>
Year: <span style="color: #0059b3">2019</span> <br>
Video Source: <span style="color: #0059b3">Apple Music, thanks CAPRiCE24</span><br>
Audio Source: <span style="color: #0059b3">Qobuz, thanks Brungor</span></b><br>
<br>
"<b>Ritmo</b>" (also known as "<b>Ritmo (<i>Bad Boys for Life</i>)</b>") is a song by American group Black Eyed Peas and Colombian singer J Balvin, released by Epic Records on October 11, 2019, as the first single from the soundtrack of the 2020 film <i>Bad Boys for Life</i>. It is also included on the group's eighth studio album <i>Translation</i>.<br>
<br>
The song debuted at number 100 on the US <i>Billboard</i> Hot 100 and peaked at number 26, staying on the chart for 27 weeks. It became the Black Eyed Peas' 17th Hot 100 entry and their first since "Don't Stop the Party" peaked at number 86 in 2011, as well as their first top 40 entry since "Just Can't Get Enough" peaked at number 3 in 2011. On <i>Billboard</i>'s Mainstream Top 40 chart, the song peaked at number 8. The song spent 24 weeks at number one on the Hot Latin Songs chart.<br>
<br>
The song features a prominent sample of the 1993 song "The Rhythm of the Night" by the Italian group Corona (the song is performed by Italian singer Jenny B, the ghost-voice involved in the project). The song was performed live at the closing ceremony of the 2019 Southeast Asian Games in the Philippines.<br>
<br>
The official video of the song was released on YouTube on October 11, 2019, on the official Black Eyed Peas channel and received 130 million views in just three weeks. As of September 2022, it has over 1 bilion views. It was directed by Colin Tilley.<br>
<br>
<b>Release Info</b><br>
The video track is upscaled to 4K with Topaz Video AI and converted to HEVC 10-bit.<br>
The PCM track is lossless (Qobuz, HiRes 24-bit), synced with Adobe Audition.<br>
The timed lyrics are synced and edited to match the music video.<br>
Enable the subtitles to see the lyrics.<br>
<br>
<div class="ToggleTriggerAnchor bbCodeSpoilerContainer">
<button type="button" class="button bbCodeSpoilerButton ToggleTrigger Tooltip JsOnly" data-target="> .SpoilerTarget"><span>Spoiler: <span class="SpoilerTitle">Media Info</span></span></button>
<div class="SpoilerTarget bbCodeSpoilerText">
<div class="bbCodeBlock bbCodeCode">
<div class="type">Code:</div>
<pre>General
Unique ID                      : 132017937389731520096789329737448074153 (0x6351BAD983C95FCFDA07A5E750BEABA9)
Complete name                  : Black Eyed Peas, J Balvin - Ritmo (Bad Boys For Life).mkv
Format                         : Matroska
Format version                 : Version 4
File size                      : 572 MiB
Duration                       : 3 min 39 s
Overall bit rate               : 21.9 Mb/s
Encoded date                   : UTC 2023-05-16 23:51:14
Writing application            : mkvmerge v76.0 ('Celebration') 64-bit
Writing library                : libebml v1.4.4 + libmatroska v1.7.1

Video
ID                             : 1
Format                         : HEVC
Format/Info                    : High Efficiency Video Coding
Format profile                 : Main 10@L5@Main
Codec ID                       : V_MPEGH/ISO/HEVC
Duration                       : 3 min 39 s
Bit rate                       : 19.5 Mb/s
Width                          : 3 840 pixels
Height                         : 2 160 pixels
Display aspect ratio           : 16:9
Frame rate mode                : Constant
Frame rate                     : 23.976 (24000/1001) FPS
Color space                    : YUV
Chroma subsampling             : 4:2:0
Bit depth                      : 10 bits
Bits/(Pixel*Frame)             : 0.098
Stream size                    : 508 MiB (89%)
Default                        : Yes
Forced                         : No
Color range                    : Limited
Color primaries                : BT.709
Transfer characteristics       : BT.709
Matrix coefficients            : BT.709

Audio #1
ID                             : 2
Format                         : PCM
Format settings                : Little / Signed
Codec ID                       : A_PCM/INT/LIT
Duration                       : 3 min 39 s
Bit rate mode                  : Constant
Bit rate                       : 2 117 kb/s
Channel(s)                     : 2 channels
Sampling rate                  : 44.1 kHz
Frame rate                     : 25.001 FPS (1764 SPF)
Bit depth                      : 24 bits
Stream size                    : 55.3 MiB (10%)
Title                          : Lossless 24-bit
Language                       : English
Default                        : Yes
Forced                         : No

Audio #2
ID                             : 3
Format                         : AAC LC
Format/Info                    : Advanced Audio Codec Low Complexity
Codec ID                       : A_AAC-2
Duration                       : 3 min 29 s
Bit rate                       : 335 kb/s
Channel(s)                     : 2 channels
Channel layout                 : L R
Sampling rate                  : 48.0 kHz
Frame rate                     : 46.875 FPS (1024 SPF)
Compression mode               : Lossy
Stream size                    : 8.35 MiB (1%)
Language                       : English
Default                        : No
Forced                         : No

Text
ID                             : 4
Format                         : UTF-8
Codec ID                       : S_TEXT/UTF8
Codec ID/Info                  : UTF-8 Plain Text
Duration                       : 3 min 38 s
Bit rate                       : 111 b/s
Frame rate                     : 0.408 FPS
Count of elements              : 89
Stream size                    : 2.96 KiB (0%)
Title                          : Lyrics
Language                       : English
Default                        : No
Forced                         : No
</pre>
</div></div>
</div><br>
<div class="bbCodeBlock bbCodeVfcHH HiddenContent">
<div class="attribution type">Hidden Content:</div>
<blockquote>You must reply before you can see the hidden data contained here.</blockquote>
</div>
<div class="messageTextEndMarker">&nbsp;</div>
</blockquote>
</article>]]></description>
                <author><![CDATA[ADHDerby]]></author>
                </item>

                </channel></rss>